<?xml version="1.0" encoding="iso-8859-1"?>
<!-- Generator: Adobe Illustrator 19.0.0, SVG Export Plug-In . SVG Version: 6.00 Build 0)  -->
<svg version="1.1" id="Layer_1" xmlns="http://www.w3.org/2000/svg" xmlns:xlink="http://www.w3.org/1999/xlink" x="0px" y="0px"
	 viewBox="0 0 512 512" style="enable-background:new 0 0 512 512;" xml:space="preserve">
<g>
	<g>
		<path d="M12.076,174.491v228.226c0,10.003,8.11,18.113,18.113,18.113c10.003,0,18.113-8.11,18.113-18.113V288h415.396v114.717
			c0,10.003,8.11,18.113,18.113,18.113c10.003,0,18.113-8.11,18.113-18.113V174.491H12.076z M271.698,239.698h-31.396
			c-10.003,0-18.113-8.11-18.113-18.113s8.11-18.113,18.113-18.113h31.396c10.003,0,18.113,8.11,18.113,18.113
			S281.701,239.698,271.698,239.698z"/>
	</g>
</g>
<g>
	<g>
		<rect y="91.17" width="512" height="59.17"/>
	</g>
</g>
<g>
</g>
<g>
</g>
<g>
</g>
<g>
</g>
<g>
</g>
<g>
</g>
<g>
</g>
<g>
</g>
<g>
</g>
<g>
</g>
<g>
</g>
<g>
</g>
<g>
</g>
<g>
</g>
<g>
</g>
</svg>
